<svg width="200" height="90" viewBox="0 0 200 90" fill="none" xmlns="http://www.w3.org/2000/svg">
  <g clip-path="url(#clip0_40004550_20526)">
    <rect width="199.784" height="89.1043" fill="#E4F2FF" />
    <path d="M41 34L55.7224 42.5V59.5L41 68L26.2776 59.5V42.5L41 34Z" fill="#F08F48" />
    <path d="M73 18L82.5263 23.5V34.5L73 40L63.4737 34.5V23.5L73 18Z" fill="#F9A568" />
    <path d="M60 58L66.9282 62V70L60 74L53.0718 70V62L60 58Z" fill="#FFB887" />
    <path d="M110 42L122.124 49V63L110 70L97.8756 63V49L110 42Z" fill="#F9A568" />
    <path d="M99 14L105.062 17.5V24.5L99 28L92.9378 24.5V17.5L99 14Z" fill="#FFC39A" fill-opacity="0.9" />
    <path d="M147 22L163.454 31.5V50.5L147 60L130.546 50.5V31.5L147 22Z" fill="#F08F48" />
    <path d="M141 66L148.794 70.5V79.5L141 84L133.206 79.5V70.5L141 66Z" fill="#FFB887" fill-opacity="0.95" />
    <path d="M180 48L190.392 54V66L180 72L169.608 66V54L180 48Z" fill="#E77A37" />
    <path d="M183.5 16L189.995 19.75V27.25L183.5 31L177.005 27.25V19.75L183.5 16Z" fill="#FFC39A" fill-opacity="0.9" />
    <path d="M18 12L23.1962 15V21L18 24L12.8038 21V15L18 12Z" fill="#FFC39A" fill-opacity="0.85" />
  </g>
  <defs>
    <clipPath id="clip0_40004550_20526">
      <rect width="199.784" height="89.1043" fill="white" />
    </clipPath>
  </defs>
</svg>
