<svg preserveAspectRatio="none" width="100%" height="100%" overflow="visible" style="display: block;" viewBox="0 0 1931.09 1352.58" fill="none" xmlns="http://www.w3.org/2000/svg">
<g id="Group 54093">
<path id="Vector" fill-rule="evenodd" clip-rule="evenodd" d="M241.85 225.762H81.0251L0.614456 338.396L81.0251 451.029H241.85L322.259 338.396L241.85 225.762Z" stroke="var(--stroke-0, #FEFEFE)" stroke-miterlimit="10"/>
<path id="Vector_2" d="M81.0254 225.762L161.43 338.385H322.252" stroke="var(--stroke-0, #FEFEFE)" stroke-miterlimit="10"/>
<path id="Vector_3" fill-rule="evenodd" clip-rule="evenodd" d="M885.142 451.025L965.555 338.39L885.143 225.757L724.321 225.757L643.908 338.392L724.321 451.024L885.142 451.025Z" stroke="var(--stroke-0, #FEFEFE)" stroke-miterlimit="10"/>
<path id="Vector_4" d="M965.551 338.389L804.743 338.389L724.332 451.022" stroke="var(--stroke-0, #FEFEFE)" stroke-miterlimit="10"/>
<path id="Vector_5" fill-rule="evenodd" clip-rule="evenodd" d="M1045.96 451.029H1206.79L1287.2 338.396L1206.79 225.762H1045.96L965.555 338.396L1045.96 451.029Z" stroke="var(--stroke-0, #FEFEFE)" stroke-miterlimit="10"/>
<path id="Vector_6" d="M1206.79 451.028L1126.38 338.405H965.561" stroke="var(--stroke-0, #FEFEFE)" stroke-miterlimit="10"/>
<path id="Vector_7" fill-rule="evenodd" clip-rule="evenodd" d="M1287.2 338.39L1367.61 451.025L1528.43 451.025L1608.84 338.392L1528.43 225.757L1367.61 225.758L1287.2 338.39Z" stroke="var(--stroke-0, #FEFEFE)" stroke-miterlimit="10"/>
<path id="Vector_8" d="M1367.61 451.024L1448.01 338.401L1367.6 225.768" stroke="var(--stroke-0, #FEFEFE)" stroke-miterlimit="10"/>
<path id="Vector_9" fill-rule="evenodd" clip-rule="evenodd" d="M1689.24 225.757L1608.83 338.392L1689.24 451.025L1850.06 451.025L1930.48 338.39L1850.06 225.758L1689.24 225.757Z" stroke="var(--stroke-0, #FEFEFE)" stroke-miterlimit="10"/>
<path id="Vector_10" d="M1608.83 338.396L1769.64 338.395L1850.05 225.762" stroke="var(--stroke-0, #FEFEFE)" stroke-miterlimit="10"/>
<path id="Vector_11" fill-rule="evenodd" clip-rule="evenodd" d="M643.905 338.392L563.493 225.757L402.671 225.757L322.259 338.39L402.671 451.025L563.493 451.024L643.905 338.392Z" stroke="var(--stroke-0, #FEFEFE)" stroke-miterlimit="10"/>
<path id="Vector_12" d="M563.495 225.757L483.092 338.38L563.503 451.013" stroke="var(--stroke-0, #FEFEFE)" stroke-miterlimit="10"/>
<path id="Vector_13" fill-rule="evenodd" clip-rule="evenodd" d="M1689.24 1126.81H1850.06L1930.47 1014.18L1850.06 901.547H1689.24L1608.83 1014.18L1689.24 1126.81Z" stroke="var(--stroke-0, #FEFEFE)" stroke-miterlimit="10"/>
<path id="Vector_14" d="M1850.06 1126.82L1769.66 1014.2H1608.84" stroke="var(--stroke-0, #FEFEFE)" stroke-miterlimit="10"/>
<path id="Vector_15" fill-rule="evenodd" clip-rule="evenodd" d="M1045.95 901.547L965.537 1014.18L1045.95 1126.82L1206.77 1126.82L1287.18 1014.18L1206.77 901.549L1045.95 901.547Z" stroke="var(--stroke-0, #FEFEFE)" stroke-miterlimit="10"/>
<path id="Vector_16" d="M965.537 1014.19L1126.34 1014.19L1206.76 901.553" stroke="var(--stroke-0, #FEFEFE)" stroke-miterlimit="10"/>
<path id="Vector_17" fill-rule="evenodd" clip-rule="evenodd" d="M885.128 901.553H724.303L643.892 1014.19L724.303 1126.82H885.128L965.537 1014.19L885.128 901.553Z" stroke="var(--stroke-0, #FEFEFE)" stroke-miterlimit="10"/>
<path id="Vector_18" d="M724.303 901.553L804.708 1014.18H965.53" stroke="var(--stroke-0, #FEFEFE)" stroke-miterlimit="10"/>
<path id="Vector_19" fill-rule="evenodd" clip-rule="evenodd" d="M643.893 1014.18L563.481 901.547L402.658 901.548L322.247 1014.18L402.659 1126.82L563.481 1126.81L643.893 1014.18Z" stroke="var(--stroke-0, #FEFEFE)" stroke-miterlimit="10"/>
<path id="Vector_20" d="M563.479 901.553L483.075 1014.18L563.486 1126.81" stroke="var(--stroke-0, #FEFEFE)" stroke-miterlimit="10"/>
<path id="Vector_21" fill-rule="evenodd" clip-rule="evenodd" d="M241.848 1126.82L322.261 1014.18L241.849 901.548L81.0266 901.547L0.614348 1014.18L81.0265 1126.81L241.848 1126.82Z" stroke="var(--stroke-0, #FEFEFE)" stroke-miterlimit="10"/>
<path id="Vector_22" d="M322.262 1014.19L161.454 1014.19L81.0433 1126.82" stroke="var(--stroke-0, #FEFEFE)" stroke-miterlimit="10"/>
<path id="Vector_23" fill-rule="evenodd" clip-rule="evenodd" d="M1287.18 1014.18L1367.6 1126.82L1528.42 1126.82L1608.83 1014.18L1528.42 901.547L1367.6 901.549L1287.18 1014.18Z" stroke="var(--stroke-0, #FEFEFE)" stroke-miterlimit="10"/>
<path id="Vector_24" d="M1367.6 1126.81L1448 1014.19L1367.59 901.558" stroke="var(--stroke-0, #FEFEFE)" stroke-miterlimit="10"/>
<path id="Vector_25" fill-rule="evenodd" clip-rule="evenodd" d="M1689.24 676.293H1850.06L1930.47 563.66L1850.06 451.026H1689.24L1608.83 563.66L1689.24 676.293Z" stroke="var(--stroke-0, #FEFEFE)" stroke-miterlimit="10"/>
<path id="Vector_26" d="M1850.06 676.292L1769.66 563.669H1608.84" stroke="var(--stroke-0, #FEFEFE)" stroke-miterlimit="10"/>
<path id="Vector_27" fill-rule="evenodd" clip-rule="evenodd" d="M1045.95 451.026L965.537 563.661L1045.95 676.294L1206.77 676.295L1287.18 563.66L1206.77 451.028L1045.95 451.026Z" stroke="var(--stroke-0, #FEFEFE)" stroke-miterlimit="10"/>
<path id="Vector_28" d="M965.537 563.66L1126.34 563.659L1206.76 451.026" stroke="var(--stroke-0, #FEFEFE)" stroke-miterlimit="10"/>
<path id="Vector_29" fill-rule="evenodd" clip-rule="evenodd" d="M885.127 451.026H724.303L643.892 563.66L724.303 676.293H885.127L965.537 563.66L885.127 451.026Z" stroke="var(--stroke-0, #FEFEFE)" stroke-miterlimit="10"/>
<path id="Vector_30" d="M724.303 451.026L804.708 563.649H965.53" stroke="var(--stroke-0, #FEFEFE)" stroke-miterlimit="10"/>
<path id="Vector_31" fill-rule="evenodd" clip-rule="evenodd" d="M643.893 563.661L563.481 451.026L402.658 451.027L322.247 563.66L402.659 676.295L563.481 676.294L643.893 563.661Z" stroke="var(--stroke-0, #FEFEFE)" stroke-miterlimit="10"/>
<path id="Vector_32" d="M563.478 451.026L483.075 563.65L563.486 676.283" stroke="var(--stroke-0, #FEFEFE)" stroke-miterlimit="10"/>
<path id="Vector_33" fill-rule="evenodd" clip-rule="evenodd" d="M241.848 676.295L322.261 563.66L241.849 451.027L81.0266 451.026L0.614348 563.661L81.0265 676.294L241.848 676.295Z" stroke="var(--stroke-0, #FEFEFE)" stroke-miterlimit="10"/>
<path id="Vector_34" d="M322.262 563.659L161.454 563.659L81.0433 676.292" stroke="var(--stroke-0, #FEFEFE)" stroke-miterlimit="10"/>
<path id="Vector_35" fill-rule="evenodd" clip-rule="evenodd" d="M1287.18 563.66L1367.6 676.295L1528.42 676.294L1608.83 563.661L1528.42 451.026L1367.6 451.028L1287.18 563.66Z" stroke="var(--stroke-0, #FEFEFE)" stroke-miterlimit="10"/>
<path id="Vector_36" d="M1367.6 676.292L1448 563.669L1367.59 451.036" stroke="var(--stroke-0, #FEFEFE)" stroke-miterlimit="10"/>
<path id="Vector_37" fill-rule="evenodd" clip-rule="evenodd" d="M1689.24 225.767H1850.06L1930.47 113.134L1850.06 0.500002L1689.24 0.500002L1608.83 113.134L1689.24 225.767Z" stroke="var(--stroke-0, #FEFEFE)" stroke-miterlimit="10"/>
<path id="Vector_38" d="M1850.06 225.764L1769.66 113.141H1608.84" stroke="var(--stroke-0, #FEFEFE)" stroke-miterlimit="10"/>
<path id="Vector_39" fill-rule="evenodd" clip-rule="evenodd" d="M1045.95 0.500032L965.537 113.135L1045.95 225.768L1206.77 225.768L1287.18 113.134L1206.77 0.501216L1045.95 0.500032Z" stroke="var(--stroke-0, #FEFEFE)" stroke-miterlimit="10"/>
<path id="Vector_40" d="M965.537 113.134L1126.34 113.133L1206.76 0.500032" stroke="var(--stroke-0, #FEFEFE)" stroke-miterlimit="10"/>
<path id="Vector_41" fill-rule="evenodd" clip-rule="evenodd" d="M885.127 0.500032L724.303 0.500032L643.892 113.134L724.303 225.767H885.127L965.537 113.134L885.127 0.500032Z" stroke="var(--stroke-0, #FEFEFE)" stroke-miterlimit="10"/>
<path id="Vector_42" d="M724.303 0.500032L804.708 113.123H965.53" stroke="var(--stroke-0, #FEFEFE)" stroke-miterlimit="10"/>
<path id="Vector_43" fill-rule="evenodd" clip-rule="evenodd" d="M643.893 113.135L563.481 0.500032L402.658 0.500497L322.247 113.134L402.659 225.768L563.481 225.767L643.893 113.135Z" stroke="var(--stroke-0, #FEFEFE)" stroke-miterlimit="10"/>
<path id="Vector_44" d="M563.478 0.500093L483.075 113.124L563.486 225.757" stroke="var(--stroke-0, #FEFEFE)" stroke-miterlimit="10"/>
<path id="Vector_45" fill-rule="evenodd" clip-rule="evenodd" d="M241.848 225.768L322.261 113.134L241.849 0.500579L81.0266 0.500093L0.614348 113.135L81.0265 225.767L241.848 225.768Z" stroke="var(--stroke-0, #FEFEFE)" stroke-miterlimit="10"/>
<path id="Vector_46" d="M322.262 113.132L161.454 113.133L81.0433 225.766" stroke="var(--stroke-0, #FEFEFE)" stroke-miterlimit="10"/>
<path id="Vector_47" fill-rule="evenodd" clip-rule="evenodd" d="M1287.18 113.134L1367.6 225.768L1528.42 225.768L1608.83 113.135L1528.42 0.500002L1367.6 0.501185L1287.18 113.134Z" stroke="var(--stroke-0, #FEFEFE)" stroke-miterlimit="10"/>
<path id="Vector_48" d="M1367.6 225.767L1448 113.144L1367.59 0.510866" stroke="var(--stroke-0, #FEFEFE)" stroke-miterlimit="10"/>
<path id="Vector_49" fill-rule="evenodd" clip-rule="evenodd" d="M241.849 676.293H81.025L0.614348 788.926L81.025 901.56H241.849L322.259 788.926L241.849 676.293Z" stroke="var(--stroke-0, #FEFEFE)" stroke-miterlimit="10"/>
<path id="Vector_50" d="M81.0254 676.292L161.43 788.915H322.252" stroke="var(--stroke-0, #FEFEFE)" stroke-miterlimit="10"/>
<path id="Vector_51" fill-rule="evenodd" clip-rule="evenodd" d="M885.142 901.561L965.555 788.926L885.143 676.293L724.321 676.293L643.908 788.927L724.321 901.56L885.142 901.561Z" stroke="var(--stroke-0, #FEFEFE)" stroke-miterlimit="10"/>
<path id="Vector_52" d="M965.551 788.93L804.743 788.93L724.332 901.563" stroke="var(--stroke-0, #FEFEFE)" stroke-miterlimit="10"/>
<path id="Vector_53" fill-rule="evenodd" clip-rule="evenodd" d="M1045.96 901.56H1206.79L1287.2 788.926L1206.79 676.292H1045.96L965.555 788.926L1045.96 901.56Z" stroke="var(--stroke-0, #FEFEFE)" stroke-miterlimit="10"/>
<path id="Vector_54" d="M1206.79 901.56L1126.38 788.937H965.561" stroke="var(--stroke-0, #FEFEFE)" stroke-miterlimit="10"/>
<path id="Vector_55" fill-rule="evenodd" clip-rule="evenodd" d="M1287.2 788.926L1367.61 901.561L1528.43 901.56L1608.84 788.927L1528.43 676.292L1367.61 676.294L1287.2 788.926Z" stroke="var(--stroke-0, #FEFEFE)" stroke-miterlimit="10"/>
<path id="Vector_56" d="M1367.61 901.56L1448.01 788.936L1367.6 676.303" stroke="var(--stroke-0, #FEFEFE)" stroke-miterlimit="10"/>
<path id="Vector_57" fill-rule="evenodd" clip-rule="evenodd" d="M1689.24 676.292L1608.83 788.927L1689.24 901.56L1850.06 901.561L1930.48 788.926L1850.06 676.294L1689.24 676.292Z" stroke="var(--stroke-0, #FEFEFE)" stroke-miterlimit="10"/>
<path id="Vector_58" d="M1608.83 788.926L1769.64 788.926L1850.05 676.292" stroke="var(--stroke-0, #FEFEFE)" stroke-miterlimit="10"/>
<path id="Vector_59" fill-rule="evenodd" clip-rule="evenodd" d="M643.905 788.927L563.493 676.292L402.671 676.293L322.259 788.926L402.671 901.561L563.493 901.56L643.905 788.927Z" stroke="var(--stroke-0, #FEFEFE)" stroke-miterlimit="10"/>
<path id="Vector_60" d="M563.495 676.292L483.092 788.916L563.503 901.549" stroke="var(--stroke-0, #FEFEFE)" stroke-miterlimit="10"/>
<path id="Vector_61" fill-rule="evenodd" clip-rule="evenodd" d="M241.849 1126.81H81.025L0.614348 1239.44L81.025 1352.08H241.849L322.259 1239.44L241.849 1126.81Z" stroke="var(--stroke-0, #FEFEFE)" stroke-miterlimit="10"/>
<path id="Vector_62" d="M81.0254 1126.81L161.43 1239.43H322.252" stroke="var(--stroke-0, #FEFEFE)" stroke-miterlimit="10"/>
<path id="Vector_63" fill-rule="evenodd" clip-rule="evenodd" d="M885.142 1352.08L965.555 1239.44L885.143 1126.81L724.321 1126.81L643.908 1239.44L724.321 1352.08L885.142 1352.08Z" stroke="var(--stroke-0, #FEFEFE)" stroke-miterlimit="10"/>
<path id="Vector_64" d="M965.551 1239.44L804.743 1239.44L724.332 1352.07" stroke="var(--stroke-0, #FEFEFE)" stroke-miterlimit="10"/>
<path id="Vector_65" fill-rule="evenodd" clip-rule="evenodd" d="M1045.96 1352.08H1206.79L1287.2 1239.44L1206.79 1126.81H1045.96L965.555 1239.44L1045.96 1352.08Z" stroke="var(--stroke-0, #FEFEFE)" stroke-miterlimit="10"/>
<path id="Vector_66" d="M1206.79 1352.08L1126.38 1239.45H965.561" stroke="var(--stroke-0, #FEFEFE)" stroke-miterlimit="10"/>
<path id="Vector_67" fill-rule="evenodd" clip-rule="evenodd" d="M1287.2 1239.44L1367.61 1352.08L1528.43 1352.08L1608.84 1239.44L1528.43 1126.81L1367.61 1126.81L1287.2 1239.44Z" stroke="var(--stroke-0, #FEFEFE)" stroke-miterlimit="10"/>
<path id="Vector_68" d="M1367.61 1352.08L1448.01 1239.45L1367.6 1126.82" stroke="var(--stroke-0, #FEFEFE)" stroke-miterlimit="10"/>
<path id="Vector_69" fill-rule="evenodd" clip-rule="evenodd" d="M1689.24 1126.81L1608.83 1239.44L1689.24 1352.08L1850.06 1352.08L1930.48 1239.44L1850.06 1126.81L1689.24 1126.81Z" stroke="var(--stroke-0, #FEFEFE)" stroke-miterlimit="10"/>
<path id="Vector_70" d="M1608.83 1239.44L1769.64 1239.44L1850.05 1126.81" stroke="var(--stroke-0, #FEFEFE)" stroke-miterlimit="10"/>
<path id="Vector_71" fill-rule="evenodd" clip-rule="evenodd" d="M643.905 1239.44L563.493 1126.81L402.671 1126.81L322.259 1239.44L402.671 1352.08L563.493 1352.08L643.905 1239.44Z" stroke="var(--stroke-0, #FEFEFE)" stroke-miterlimit="10"/>
</g>
</svg>
